<svg width="107" height="32" viewBox="0 0 107 32" fill="none" xmlns="http://www.w3.org/2000/svg">
<path d="M42.2 13.208C41.432 13.208 40.7227 13.0213 40.072 12.648C39.432 12.264 38.92 11.752 38.536 11.112C38.1627 10.4613 37.976 9.752 37.976 8.984V5.576C37.976 4.808 38.1627 4.104 38.536 3.464C38.92 2.81333 39.432 2.30133 40.072 1.928C40.7227 1.544 41.432 1.352 42.2 1.352C42.872 1.352 43.496 1.47467 44.072 1.72C44.648 1.95467 45.1387 2.30133 45.544 2.76C45.608 2.83467 45.64 2.92533 45.64 3.032C45.64 3.13867 45.5973 3.24533 45.512 3.352L44.808 4.088C44.7227 4.17333 44.6373 4.216 44.552 4.216C44.4453 4.216 44.3493 4.168 44.264 4.072C43.7307 3.50667 43.048 3.224 42.216 3.224C41.8107 3.224 41.432 3.33067 41.08 3.544C40.728 3.75733 40.4453 4.04533 40.232 4.408C40.0293 4.77067 39.928 5.16 39.928 5.576V8.984C39.928 9.4 40.0293 9.78933 40.232 10.152C40.4453 10.5147 40.728 10.8027 41.08 11.016C41.432 11.2293 41.8107 11.336 42.216 11.336C42.6213 11.336 43 11.2347 43.352 11.032C43.704 10.8293 43.9813 10.552 44.184 10.2C44.3867 9.848 44.488 9.464 44.488 9.048V8.264H42.344C42.248 8.264 42.168 8.232 42.104 8.168C42.04 8.104 42.008 8.024 42.008 7.928V6.776C42.008 6.68 42.04 6.6 42.104 6.536C42.168 6.472 42.248 6.44 42.344 6.44H45.72C45.912 6.44 46.072 6.50933 46.2 6.648C46.3387 6.776 46.408 6.936 46.408 7.128V8.984C46.408 9.752 46.216 10.4613 45.832 11.112C45.4587 11.752 44.9467 12.264 44.296 12.648C43.656 13.0213 42.9573 13.208 42.2 13.208ZM51.0078 13.208C50.1118 13.208 49.3811 12.9573 48.8158 12.456C48.2611 11.944 47.9838 11.2827 47.9838 10.472C47.9838 9.736 48.2398 9.128 48.7518 8.648C49.2638 8.15733 49.9838 7.83733 50.9118 7.688C51.1464 7.66667 51.3704 7.63467 51.5838 7.592C52.3304 7.50667 52.7838 7.44267 52.9438 7.4C53.3384 7.336 53.5358 7.112 53.5358 6.728C53.5358 6.33333 53.3704 6.01867 53.0398 5.784C52.7198 5.53867 52.3144 5.416 51.8238 5.416C50.9598 5.416 50.3304 5.73067 49.9358 6.36C49.8504 6.49867 49.7491 6.568 49.6318 6.568C49.5464 6.568 49.4771 6.54667 49.4238 6.504L48.5278 5.896C48.4318 5.832 48.3838 5.74133 48.3838 5.624C48.3838 5.592 48.3944 5.544 48.4158 5.48C48.7251 4.89333 49.1838 4.44 49.7918 4.12C50.3998 3.78933 51.0878 3.624 51.8558 3.624C52.5598 3.624 53.1784 3.75733 53.7118 4.024C54.2451 4.29067 54.6558 4.66933 54.9438 5.16C55.2424 5.65067 55.3918 6.216 55.3918 6.856V12.664C55.3918 12.76 55.3598 12.84 55.2958 12.904C55.2318 12.968 55.1518 13 55.0558 13H53.9678C53.8718 13 53.7918 12.9733 53.7278 12.92C53.6638 12.856 53.6318 12.7707 53.6318 12.664V12.04C52.8958 12.8187 52.0211 13.208 51.0078 13.208ZM51.1518 11.496C51.5678 11.496 51.9624 11.3893 52.3358 11.176C52.7091 10.9627 53.0078 10.6853 53.2318 10.344C53.4664 9.992 53.5838 9.624 53.5838 9.24V8.92L52.3838 9.096C51.7331 9.17067 51.3118 9.22933 51.1198 9.272C50.2451 9.432 49.8078 9.81067 49.8078 10.408C49.8078 10.7387 49.9304 11.0053 50.1758 11.208C50.4211 11.4 50.7464 11.496 51.1518 11.496ZM57.6688 13C57.5728 13 57.4928 12.968 57.4288 12.904C57.3648 12.84 57.3328 12.76 57.3328 12.664V11.48C57.3328 11.384 57.3648 11.304 57.4288 11.24C57.4928 11.176 57.5728 11.144 57.6688 11.144H58.8848V5.64H57.5088C57.4128 5.64 57.3328 5.608 57.2688 5.544C57.2048 5.48 57.1728 5.4 57.1728 5.304V4.168C57.1728 4.072 57.2048 3.992 57.2688 3.928C57.3328 3.864 57.4128 3.832 57.5088 3.832H59.9888C60.1808 3.832 60.3408 3.90133 60.4688 4.04C60.6074 4.168 60.6768 4.328 60.6768 4.52V5.096L61.5408 4.408C61.8608 4.152 62.1381 3.976 62.3728 3.88C62.6074 3.77333 62.8848 3.72 63.2048 3.72H63.7008C63.7968 3.72 63.8768 3.752 63.9408 3.816C64.0048 3.88 64.0368 3.96 64.0368 4.056V5.288C64.0368 5.384 64.0048 5.464 63.9408 5.528C63.8768 5.592 63.7968 5.624 63.7008 5.624H63.2848C63.0074 5.624 62.7674 5.672 62.5648 5.768C62.3621 5.864 62.0528 6.07733 61.6368 6.408L60.7568 7.112V11.144H62.3408C62.4368 11.144 62.5168 11.176 62.5808 11.24C62.6448 11.304 62.6768 11.384 62.6768 11.48V12.664C62.6768 12.76 62.6448 12.84 62.5808 12.904C62.5168 12.968 62.4368 13 62.3408 13H57.6688ZM68.7605 13.208C68.1418 13.208 67.5605 13.0427 67.0165 12.712C66.4725 12.3707 66.0352 11.9173 65.7045 11.352C65.3845 10.7867 65.2245 10.1787 65.2245 9.528V7.304C65.2245 6.65333 65.3845 6.04533 65.7045 5.48C66.0245 4.91467 66.4565 4.46667 67.0005 4.136C67.5445 3.79467 68.1365 3.624 68.7765 3.624C69.1818 3.624 69.5712 3.688 69.9445 3.816C70.3285 3.944 70.6592 4.12533 70.9365 4.36V1.08C70.9365 0.984 70.9685 0.904 71.0325 0.839999C71.0965 0.775999 71.1765 0.743999 71.2725 0.743999H72.5205C72.6165 0.743999 72.6965 0.775999 72.7605 0.839999C72.8245 0.904 72.8565 0.984 72.8565 1.08V12.664C72.8565 12.76 72.8245 12.84 72.7605 12.904C72.6965 12.968 72.6165 13 72.5205 13H71.4805C71.3845 13 71.3045 12.968 71.2405 12.904C71.1765 12.84 71.1445 12.76 71.1445 12.664V11.896C70.8565 12.3333 70.5098 12.664 70.1045 12.888C69.6992 13.1013 69.2512 13.208 68.7605 13.208ZM69.0325 11.368C69.5552 11.368 70.0032 11.1867 70.3765 10.824C70.7498 10.4507 70.9365 10.0027 70.9365 9.48V7.352C70.9365 6.82933 70.7498 6.38667 70.3765 6.024C70.0032 5.65067 69.5552 5.464 69.0325 5.464C68.5098 5.464 68.0618 5.65067 67.6885 6.024C67.3258 6.38667 67.1445 6.82933 67.1445 7.352V9.48C67.1445 10.0027 67.3258 10.4507 67.6885 10.824C68.0618 11.1867 68.5098 11.368 69.0325 11.368ZM78.9544 13C78.261 13 77.621 12.8293 77.0344 12.488C76.4584 12.1467 75.9997 11.6827 75.6584 11.096C75.317 10.5093 75.1464 9.86933 75.1464 9.176V7.448C75.1464 6.75467 75.317 6.11467 75.6584 5.528C75.9997 4.94133 76.4584 4.47733 77.0344 4.136C77.621 3.79467 78.261 3.624 78.9544 3.624C79.6477 3.624 80.2824 3.79467 80.8584 4.136C81.445 4.47733 81.909 4.94133 82.2504 5.528C82.5917 6.11467 82.7624 6.75467 82.7624 7.448V8.52C82.7624 8.712 82.693 8.87733 82.5544 9.016C82.4264 9.144 82.2664 9.208 82.0744 9.208H77.0664V9.288C77.0664 9.81067 77.2477 10.2587 77.6104 10.632C77.9837 10.9947 78.4317 11.176 78.9544 11.176H81.4984C81.5944 11.176 81.6744 11.208 81.7384 11.272C81.8024 11.336 81.8344 11.416 81.8344 11.512V12.664C81.8344 12.76 81.8024 12.84 81.7384 12.904C81.6744 12.968 81.5944 13 81.4984 13H78.9544ZM80.8424 7.48V7.336C80.8424 6.81333 80.6557 6.37067 80.2824 6.008C79.9197 5.63467 79.477 5.448 78.9544 5.448C78.4317 5.448 77.9837 5.63467 77.6104 6.008C77.2477 6.37067 77.0664 6.81333 77.0664 7.336V7.48H80.8424ZM85.1778 13C85.0818 13 85.0018 12.968 84.9378 12.904C84.8738 12.84 84.8418 12.76 84.8418 12.664V4.168C84.8418 4.072 84.8738 3.992 84.9378 3.928C85.0018 3.864 85.0818 3.832 85.1778 3.832H86.4258C86.5218 3.832 86.6018 3.864 86.6658 3.928C86.7298 3.992 86.7618 4.072 86.7618 4.168V4.92C87.0604 4.51467 87.4124 4.2 87.8177 3.976C88.2338 3.74133 88.6871 3.624 89.1778 3.624C89.7858 3.624 90.3298 3.768 90.8098 4.056C91.3004 4.344 91.6844 4.744 91.9618 5.256C92.2391 5.768 92.3778 6.344 92.3778 6.984V12.664C92.3778 12.76 92.3458 12.84 92.2818 12.904C92.2178 12.968 92.1377 13 92.0417 13H90.7938C90.6978 13 90.6178 12.968 90.5538 12.904C90.4898 12.84 90.4578 12.76 90.4578 12.664V7.224C90.4578 6.65867 90.3138 6.22667 90.0258 5.928C89.7378 5.61867 89.3324 5.464 88.8098 5.464C88.1804 5.464 87.6791 5.672 87.3058 6.088C86.9431 6.49333 86.7618 7.05333 86.7618 7.768V12.664C86.7618 12.76 86.7298 12.84 86.6658 12.904C86.6018 12.968 86.5218 13 86.4258 13H85.1778ZM41.176 29.032C41.08 29.032 40.9947 29.0053 40.92 28.952C40.8453 28.888 40.7973 28.8133 40.776 28.728L37.656 17.976C37.6453 17.9547 37.64 17.9227 37.64 17.88C37.64 17.7947 37.672 17.72 37.736 17.656C37.8 17.592 37.88 17.56 37.976 17.56H39.224C39.32 17.56 39.4053 17.592 39.48 17.656C39.5547 17.7093 39.6027 17.7787 39.624 17.864L42.008 26.088L44.296 17.864C44.3173 17.7787 44.3653 17.7093 44.44 17.656C44.5147 17.592 44.6 17.56 44.696 17.56H45.944C46.04 17.56 46.1253 17.592 46.2 17.656C46.2747 17.7093 46.3227 17.7787 46.344 17.864L48.728 26.088L51.016 17.864C51.0373 17.7787 51.0853 17.7093 51.16 17.656C51.2347 17.592 51.32 17.56 51.416 17.56H52.728C52.8453 17.56 52.9307 17.6027 52.984 17.688C53.048 17.7733 53.064 17.8693 53.032 17.976L49.832 28.728C49.8107 28.824 49.7573 28.8987 49.672 28.952C49.5973 29.0053 49.512 29.032 49.416 29.032H47.896C47.8 29.032 47.7147 29.0053 47.64 28.952C47.5653 28.888 47.5173 28.8133 47.496 28.728L45.32 20.952L43.112 28.728C43.0907 28.824 43.0373 28.8987 42.952 28.952C42.8773 29.0053 42.792 29.032 42.696 29.032H41.176ZM57.845 29C57.1517 29 56.5117 28.8293 55.925 28.488C55.349 28.1467 54.8903 27.6827 54.549 27.096C54.2077 26.5093 54.037 25.8693 54.037 25.176V23.448C54.037 22.7547 54.2077 22.1147 54.549 21.528C54.8903 20.9413 55.349 20.4773 55.925 20.136C56.5117 19.7947 57.1517 19.624 57.845 19.624C58.5383 19.624 59.173 19.7947 59.749 20.136C60.3357 20.4773 60.7997 20.9413 61.141 21.528C61.4823 22.1147 61.653 22.7547 61.653 23.448V24.52C61.653 24.712 61.5837 24.8773 61.445 25.016C61.317 25.144 61.157 25.208 60.965 25.208H55.957V25.288C55.957 25.8107 56.1383 26.2587 56.501 26.632C56.8743 26.9947 57.3223 27.176 57.845 27.176H60.389C60.485 27.176 60.565 27.208 60.629 27.272C60.693 27.336 60.725 27.416 60.725 27.512V28.664C60.725 28.76 60.693 28.84 60.629 28.904C60.565 28.968 60.485 29 60.389 29H57.845ZM59.733 23.48V23.336C59.733 22.8133 59.5463 22.3707 59.173 22.008C58.8103 21.6347 58.3677 21.448 57.845 21.448C57.3223 21.448 56.8743 21.6347 56.501 22.008C56.1383 22.3707 55.957 22.8133 55.957 23.336V23.48H59.733ZM65.9921 29.208C65.0961 29.208 64.3655 28.9573 63.8001 28.456C63.2455 27.944 62.9681 27.2827 62.9681 26.472C62.9681 25.736 63.2241 25.128 63.7361 24.648C64.2481 24.1573 64.9681 23.8373 65.8961 23.688C66.1308 23.6667 66.3548 23.6347 66.5681 23.592C67.3148 23.5067 67.7681 23.4427 67.9281 23.4C68.3228 23.336 68.5201 23.112 68.5201 22.728C68.5201 22.3333 68.3548 22.0187 68.0241 21.784C67.7041 21.5387 67.2988 21.416 66.8081 21.416C65.9441 21.416 65.3148 21.7307 64.9201 22.36C64.8348 22.4987 64.7335 22.568 64.6161 22.568C64.5308 22.568 64.4615 22.5467 64.4081 22.504L63.5121 21.896C63.4161 21.832 63.3681 21.7413 63.3681 21.624C63.3681 21.592 63.3788 21.544 63.4001 21.48C63.7095 20.8933 64.1681 20.44 64.7761 20.12C65.3841 19.7893 66.0721 19.624 66.8401 19.624C67.5441 19.624 68.1628 19.7573 68.6961 20.024C69.2295 20.2907 69.6401 20.6693 69.9281 21.16C70.2268 21.6507 70.3761 22.216 70.3761 22.856V28.664C70.3761 28.76 70.3441 28.84 70.2801 28.904C70.2161 28.968 70.1361 29 70.0401 29H68.9521C68.8561 29 68.7761 28.9733 68.7121 28.92C68.6481 28.856 68.6161 28.7707 68.6161 28.664V28.04C67.8801 28.8187 67.0055 29.208 65.9921 29.208ZM66.1361 27.496C66.5521 27.496 66.9468 27.3893 67.3201 27.176C67.6935 26.9627 67.9921 26.6853 68.2161 26.344C68.4508 25.992 68.5681 25.624 68.5681 25.24V24.92L67.3681 25.096C66.7175 25.1707 66.2961 25.2293 66.1041 25.272C65.2295 25.432 64.7921 25.8107 64.7921 26.408C64.7921 26.7387 64.9148 27.0053 65.1601 27.208C65.4055 27.4 65.7308 27.496 66.1361 27.496ZM76.1125 29C75.2805 29 74.6032 28.744 74.0805 28.232C73.5685 27.72 73.3125 27.048 73.3125 26.216V21.624H72.2085C72.1125 21.624 72.0325 21.592 71.9685 21.528C71.9045 21.464 71.8725 21.384 71.8725 21.288V20.168C71.8725 20.072 71.9045 19.992 71.9685 19.928C72.0325 19.864 72.1125 19.832 72.2085 19.832H73.3125V18.104C73.3125 18.008 73.3445 17.928 73.4085 17.864C73.4725 17.8 73.5525 17.768 73.6485 17.768H74.8965C74.9925 17.768 75.0725 17.8 75.1365 17.864C75.2005 17.928 75.2325 18.008 75.2325 18.104V19.832H77.9365C78.0325 19.832 78.1125 19.864 78.1765 19.928C78.2405 19.992 78.2725 20.072 78.2725 20.168V21.304C78.2725 21.4 78.2405 21.48 78.1765 21.544C78.1125 21.608 78.0325 21.64 77.9365 21.64H75.2325V26.136C75.2325 26.456 75.3232 26.712 75.5045 26.904C75.6965 27.096 75.9472 27.192 76.2565 27.192L77.9365 27.208C78.0325 27.208 78.1125 27.24 78.1765 27.304C78.2405 27.368 78.2725 27.448 78.2725 27.544V28.664C78.2725 28.76 78.2405 28.84 78.1765 28.904C78.1125 28.968 78.0325 29 77.9365 29H76.1125ZM80.6621 29C80.5661 29 80.4861 28.968 80.4221 28.904C80.3581 28.84 80.3261 28.76 80.3261 28.664V17.08C80.3261 16.984 80.3581 16.904 80.4221 16.84C80.4861 16.776 80.5661 16.744 80.6621 16.744H81.9101C82.0061 16.744 82.0861 16.776 82.1501 16.84C82.2141 16.904 82.2461 16.984 82.2461 17.08V20.616C82.5555 20.3067 82.9075 20.0667 83.3021 19.896C83.6968 19.7147 84.1021 19.624 84.5181 19.624C85.1795 19.624 85.7608 19.768 86.2621 20.056C86.7741 20.3333 87.1688 20.728 87.4461 21.24C87.7235 21.7413 87.8621 22.3227 87.8621 22.984V28.664C87.8621 28.76 87.8301 28.84 87.7661 28.904C87.7021 28.968 87.6221 29 87.5261 29H86.2781C86.1821 29 86.1021 28.968 86.0381 28.904C85.9741 28.84 85.9421 28.76 85.9421 28.664V23.224C85.9421 22.6587 85.7981 22.2267 85.5101 21.928C85.2221 21.6187 84.8168 21.464 84.2941 21.464C83.6648 21.464 83.1635 21.672 82.7901 22.088C82.4275 22.4933 82.2461 23.0533 82.2461 23.768V28.664C82.2461 28.76 82.2141 28.84 82.1501 28.904C82.0861 28.968 82.0061 29 81.9101 29H80.6621ZM93.6731 29C92.9798 29 92.3398 28.8293 91.7531 28.488C91.1771 28.1467 90.7185 27.6827 90.3771 27.096C90.0358 26.5093 89.8651 25.8693 89.8651 25.176V23.448C89.8651 22.7547 90.0358 22.1147 90.3771 21.528C90.7185 20.9413 91.1771 20.4773 91.7531 20.136C92.3398 19.7947 92.9798 19.624 93.6731 19.624C94.3665 19.624 95.0011 19.7947 95.5771 20.136C96.1638 20.4773 96.6278 20.9413 96.9691 21.528C97.3105 22.1147 97.4811 22.7547 97.4811 23.448V24.52C97.4811 24.712 97.4118 24.8773 97.2731 25.016C97.1451 25.144 96.9851 25.208 96.7931 25.208H91.7851V25.288C91.7851 25.8107 91.9665 26.2587 92.3291 26.632C92.7025 26.9947 93.1505 27.176 93.6731 27.176H96.2171C96.3131 27.176 96.3931 27.208 96.4571 27.272C96.5211 27.336 96.5531 27.416 96.5531 27.512V28.664C96.5531 28.76 96.5211 28.84 96.4571 28.904C96.3931 28.968 96.3131 29 96.2171 29H93.6731ZM95.5611 23.48V23.336C95.5611 22.8133 95.3745 22.3707 95.0011 22.008C94.6385 21.6347 94.1958 21.448 93.6731 21.448C93.1505 21.448 92.7025 21.6347 92.3291 22.008C91.9665 22.3707 91.7851 22.8133 91.7851 23.336V23.48H95.5611ZM99.5125 29C99.4165 29 99.3365 28.968 99.2725 28.904C99.2085 28.84 99.1765 28.76 99.1765 28.664V27.48C99.1765 27.384 99.2085 27.304 99.2725 27.24C99.3365 27.176 99.4165 27.144 99.5125 27.144H100.729V21.64H99.3525C99.2565 21.64 99.1765 21.608 99.1125 21.544C99.0485 21.48 99.0165 21.4 99.0165 21.304V20.168C99.0165 20.072 99.0485 19.992 99.1125 19.928C99.1765 19.864 99.2565 19.832 99.3525 19.832H101.833C102.025 19.832 102.185 19.9013 102.312 20.04C102.451 20.168 102.521 20.328 102.521 20.52V21.096L103.385 20.408C103.705 20.152 103.982 19.976 104.217 19.88C104.451 19.7733 104.729 19.72 105.049 19.72H105.545C105.641 19.72 105.721 19.752 105.785 19.816C105.849 19.88 105.881 19.96 105.881 20.056V21.288C105.881 21.384 105.849 21.464 105.785 21.528C105.721 21.592 105.641 21.624 105.545 21.624H105.129C104.851 21.624 104.611 21.672 104.409 21.768C104.206 21.864 103.897 22.0773 103.481 22.408L102.601 23.112V27.144H104.185C104.281 27.144 104.361 27.176 104.425 27.24C104.489 27.304 104.521 27.384 104.521 27.48V28.664C104.521 28.76 104.489 28.84 104.425 28.904C104.361 28.968 104.281 29 104.185 29H99.5125Z" fill="#007E79"/>
<path fill-rule="evenodd" clip-rule="evenodd" d="M15.5 30C23.5081 30 30 23.5081 30 15.5C30 13.8589 29.7274 12.2814 29.2249 10.8105C27.2755 5.10373 21.867 1 15.5 1C7.49187 1 1 7.49187 1 15.5C1 23.5081 7.49187 30 15.5 30Z" stroke="#29BB9C" stroke-width="2"/>
<path fill-rule="evenodd" clip-rule="evenodd" d="M15.5 30C23.5081 30 30 23.5082 30 15.5C30 13.8589 29.7274 12.2815 29.2249 10.8105C29.2249 10.8105 21.9902 12.0586 18.2378 17.2339C14.4853 22.4092 15.5 30 15.5 30Z" stroke="#29BB9C" stroke-width="2"/>
<path fill-rule="evenodd" clip-rule="evenodd" d="M1 15.5C1 23.5081 7.49187 30 15.5 30C15.5 30 14.3289 23.8389 10.9453 20.1575C6.74197 15.5841 1 15.5 1 15.5Z" stroke="#29BB9C" stroke-width="2"/>
<rect x="6" y="4" width="2" height="13" fill="#29BB9C"/>
<rect x="11" y="1" width="2" height="21" fill="#29BB9C"/>
<path fill-rule="evenodd" clip-rule="evenodd" d="M16 1H18V19L16 20V1Z" fill="#29BB9C"/>
<path fill-rule="evenodd" clip-rule="evenodd" d="M21 2L23 3V13L21 14V2Z" fill="#29BB9C"/>
</svg>
