<svg width="161" height="53" viewBox="0 0 161 53" fill="none" xmlns="http://www.w3.org/2000/svg">
<path d="M36.5106 28.2166L39.3144 26.7636V4.68106H37.1944L32.0177 11.5622H31.4365L31.7647 3.82435H54.2086L54.5368 11.569H53.9145L48.8404 4.68791H46.6589V26.7088L49.4763 28.2029V28.9499H36.5106V28.2166ZM56.7183 27.2434V2.78259L54.5368 1.90532V1.45298L62.401 0H63.2627V11.6101L63.4473 11.4251C65.3279 9.82132 67.7145 8.93034 70.1901 8.91663C73.6367 8.91663 75.1548 10.8699 75.1548 14.4955V27.2365L76.9943 28.244V28.9431H66.7093V28.244L68.5557 27.2365V14.4544C68.5557 12.4531 67.6803 11.6581 66.0528 11.6581C65.068 11.6375 64.1038 11.9528 63.3311 12.5559V27.2776L65.1433 28.2851V28.9499H54.8582V28.2851L56.7183 27.2434ZM82.5882 19.7317C82.8002 23.7754 84.6124 26.9007 88.8933 26.9007C90.9653 26.9007 92.4356 25.9412 93.7965 25.2078V26.0028C91.9432 28.2714 89.16 29.5668 86.2331 29.5325C79.593 29.5325 76.2079 25.8315 76.2079 19.4302C76.2079 13.1728 79.9212 9.27302 85.9117 9.27302C91.5535 9.27302 94.4803 12.0967 94.4803 19.5398V19.7317H82.5882ZM82.4788 18.7928L88.3325 18.4364C88.3325 13.4264 87.4777 10.1023 85.7613 10.1023C83.9286 10.1092 82.4788 13.9746 82.4788 18.7928ZM0 38.7438C0 28.1001 7.02995 24.31 14.86 24.31C18.1835 24.31 21.3155 24.8583 23.073 25.5711L23.2234 33.0005H22.4781L17.8826 25.8109C16.9594 25.4408 15.9678 25.2832 14.9694 25.338C10.8048 25.338 8.67802 30.163 8.7464 38.0653C8.82163 47.5165 10.4629 51.8206 14.2856 51.8206C15.0652 51.8481 15.8447 51.7178 16.5765 51.4368V41.3071L14.0531 39.8678V39.0043H26.2392V39.909L23.7568 41.3002V51.2929C20.8026 52.3415 17.6843 52.8761 14.5454 52.8624C5.64858 52.8693 0 48.7365 0 38.7438ZM25.1109 33.7749V33.1581L33.2828 31.712L34.1855 31.7873V47.9757C34.1855 49.929 35.1224 50.5253 36.6952 50.5253C37.7278 50.539 38.7057 50.0798 39.3554 49.2711V34.7481L37.1124 33.7681V33.1375L45.2844 31.6914L46.105 31.7668V50.3402L48.3138 51.2655V51.8549L40.2991 52.8418L39.4785 52.7665V50.3265H39.2528C37.6048 51.9372 35.4096 52.8624 33.1119 52.9172C29.1798 52.9172 27.3812 50.5938 27.3812 47.0642V34.7481L25.1109 33.7749ZM76.4883 31.6777L77.1653 31.7531V37.7638H77.3499C78.2253 33.3911 80.1537 31.7531 82.513 31.7531C82.8549 31.7394 83.1968 31.7873 83.5182 31.9039V37.9899C82.9643 37.8734 82.3967 37.8254 81.836 37.8391C80.3042 37.798 78.7792 38.1064 77.3773 38.7301V50.5801L79.2442 51.615V52.4306H68.6172V51.6219L70.532 50.5801V34.4055L68.289 33.7338V33.1855L76.4883 31.6777ZM97.0516 32.1849V25.8658L94.8086 25.0776V24.5773L103.083 23.0558L103.87 23.1723V50.3128L106.154 51.1421V51.8412L97.9816 52.9309L97.3456 52.8555V50.6212H97.161C95.7454 52.1222 93.7691 52.9515 91.7107 52.9104C87.252 52.9104 83.9969 49.4972 83.9969 42.5339C83.9969 35.1799 87.7786 31.5612 93.5092 31.5612C94.7128 31.4995 95.9301 31.712 97.0516 32.1849ZM97.0516 49.5658V33.3157C96.4224 32.7811 95.6087 32.5275 94.788 32.6098C92.5724 32.6852 91.2047 36.0366 91.2047 42.0062C91.2047 47.3726 92.1826 50.3745 95.1368 50.2717C95.8412 50.2786 96.5182 50.025 97.0516 49.5658ZM115.112 31.6777L115.823 31.7531V50.5801L117.69 51.615V52.4306H107.063V51.6219L108.971 50.5801V34.707L106.687 33.8023V33.1718L115.112 31.6777ZM115.857 26.5854C115.796 28.5387 114.175 30.0739 112.226 30.0397C110.941 30.0876 109.73 29.4297 109.074 28.3262C108.417 27.2228 108.417 25.8384 109.074 24.7349C109.73 23.6315 110.941 22.9735 112.226 23.0215C114.202 22.9941 115.83 24.5841 115.857 26.5648V26.5854ZM139.724 50.5801V34.5357L137.481 33.7475V32.973L145.653 31.4515L146.473 31.5269V33.9325H146.699C148.641 32.2671 151.11 31.3487 153.667 31.3419C157.223 31.3419 158.796 33.0279 158.796 36.8042V50.5527L160.704 51.6424V52.4375H150.063V51.6287L151.971 50.587V37.1401C151.971 35.0771 151.069 34.2478 149.386 34.2478C148.374 34.2204 147.39 34.5357 146.583 35.1456V50.5801L148.456 51.615V52.4375H137.823V51.6287L139.724 50.5801ZM128.16 40.4984V37.8049C128.16 33.7544 127.278 32.4247 124.775 32.4247C124.494 32.4316 124.207 32.459 123.927 32.5001L119.475 38.5451H118.846V32.973C121.253 32.1437 123.776 31.7051 126.32 31.6708C131.77 31.6708 134.923 33.1855 134.923 37.7569V50.868L136.872 51.382V51.896C135.634 52.5334 134.253 52.8487 132.858 52.8213C130.17 52.8213 128.885 51.9372 128.297 50.4636H128.105C126.963 52.0125 125.349 52.8967 122.805 52.8967C119.571 52.8967 117.355 50.868 117.355 47.3726C117.355 43.98 119.454 42.1433 123.722 41.3277L128.16 40.4984ZM128.16 49.5658V41.4579L126.799 41.5675C124.665 41.7526 123.893 43.1165 123.893 46.1389C123.893 49.415 124.98 50.2649 126.464 50.2649C127.107 50.3265 127.743 50.0661 128.16 49.5658ZM59.1596 40.4984V37.8049C59.1596 33.7544 58.2774 32.4247 55.7746 32.4247C55.4942 32.4316 55.207 32.459 54.9266 32.5001L50.4748 38.5382H49.8525V32.973C52.2596 32.1437 54.7761 31.7051 57.3201 31.6708C62.7703 31.6708 65.9229 33.1855 65.9229 37.7569V50.868L67.8718 51.382V51.896C66.6341 52.5334 65.2527 52.8487 63.8576 52.8213C61.1701 52.8213 59.8845 51.9372 59.2964 50.4636H59.1117C57.9697 52.0125 56.3558 52.8967 53.8119 52.8967C50.5773 52.8967 48.3617 50.868 48.3617 47.3726C48.3617 43.98 50.4611 42.1433 54.7283 41.3277L59.1596 40.4984ZM59.1596 49.5658V41.4579L57.7988 41.5675C55.6652 41.7526 54.8924 43.1165 54.8924 46.1389C54.8924 49.415 55.9797 50.2649 57.4637 50.2649C58.1065 50.3265 58.7425 50.0661 59.1596 49.5658Z" fill="#121212"/>
</svg>
